v  20.851225 -39.649834 32.571609
v  20.720263 -39.659435 32.675613
v  20.589304 -39.649834 32.571609
v  20.508362 -39.624695 32.299324
v  20.932169 -39.624695 32.299324
v  20.508362 -39.593620 31.962755
v  20.932169 -39.593620 31.962755
v  20.589304 -39.568481 31.690470
v  20.851225 -39.568481 31.690470
v  20.720263 -39.558876 31.586466
v  20.882185 -39.713455 32.649750
v  20.882185 -39.978951 32.625237
v  20.726276 -39.990379 32.749046
v  20.726276 -39.724888 32.773560
v  20.570368 -39.713455 32.649750
v  20.570368 -39.978951 32.625237
v  20.474010 -39.683529 32.325592
v  20.474010 -39.949020 32.301086
v  20.978540 -39.683529 32.325592
v  20.978540 -39.949020 32.301086
v  20.474010 -39.646534 31.924925
v  20.474010 -39.912025 31.900412
v  20.978540 -39.646534 31.924925
v  20.978540 -39.912025 31.900412
v  20.570368 -39.616608 31.600775
v  20.570368 -39.882099 31.576260
v  20.882185 -39.616608 31.600775
v  20.882185 -39.882099 31.576260
v  20.726276 -39.605175 31.476961
v  20.726276 -39.870667 31.452446
v  10.182793 -39.649834 32.571609
v  10.444720 -39.649834 32.571609
v  10.313755 -39.659435 32.675613
v  10.101853 -39.624695 32.299324
v  10.525661 -39.624695 32.299324
v  10.101853 -39.593620 31.962755
v  10.525661 -39.593620 31.962755
v  10.182793 -39.568481 31.690470
v  10.444720 -39.568481 31.690470
v  10.313755 -39.558880 31.586466
v  10.151836 -39.713455 32.649750
v  10.307745 -39.724888 32.773560
v  10.307745 -39.990379 32.749046
v  10.151836 -39.978951 32.625237
v  10.463654 -39.713455 32.649750
v  10.463654 -39.978951 32.625237
v  10.560012 -39.683529 32.325592
v  10.560012 -39.949020 32.301086
v  10.055481 -39.683529 32.325592
v  10.055481 -39.949020 32.301086
v  10.560012 -39.646534 31.924925
v  10.560012 -39.912029 31.900412
v  10.055481 -39.646534 31.924925
v  10.055481 -39.912029 31.900412
v  10.463654 -39.616608 31.600775
v  10.463654 -39.882099 31.576260
v  10.151836 -39.616608 31.600775
v  10.151836 -39.882099 31.576260
v  10.307745 -39.605175 31.476961
v  10.307745 -39.870667 31.452446
v  20.109636 -39.977016 34.005463
v  21.141035 -39.934383 33.543686
v  21.141035 -41.329464 33.414879
v  20.109636 -41.372101 33.876663
v  21.141035 -39.790775 31.988298
v  20.109636 -39.801891 32.108681
v  21.141035 -41.185860 31.859495
v  20.109636 -41.196976 31.979872
v  21.141035 -39.576942 29.672237
v  20.109636 -39.617241 30.108704
v  21.141035 -40.972023 29.543434
v  20.109636 -41.012321 29.979900
v  20.109636 -39.565861 29.552225
v  21.141035 -39.548782 29.367245
v  21.141035 -40.943863 29.238441
v  20.109636 -40.960945 29.423420
v  10.936915 -39.977016 34.005463
v  10.936916 -41.372101 33.876663
v  9.905511 -41.329468 33.414879
v  9.905510 -39.934383 33.543686
v  9.905510 -39.790775 31.988298
v  10.936915 -39.801891 32.108681
v  10.936916 -41.196976 31.979872
v  9.905511 -41.185860 31.859495
v  9.905510 -39.576942 29.672237
v  10.936915 -39.617241 30.108704
v  10.936916 -41.012321 29.979900
v  9.905511 -40.972023 29.543434
v  9.905510 -39.548782 29.367245
v  10.936915 -39.565861 29.552225
v  9.905511 -40.943863 29.238441
v  10.936916 -40.960945 29.423420
# 92 vertices

vn  -0.000006 38.811405 3.583478
vn  -0.000006 38.811405 3.583478
vn  -0.000006 38.811405 3.583478
vn  -0.000006 38.811432 3.583195
vn  -0.000006 38.811432 3.583195
vn  -0.000006 38.811409 3.583418
vn  -0.000006 38.811409 3.583418
vn  -0.000006 38.811432 3.583195
vn  -0.000006 38.811432 3.583195
vn  -0.000006 38.811405 3.583479
vn  24.302332 -2.801644 30.343266
vn  24.302332 -2.801644 30.343266
vn  24.302332 -2.801644 30.343266
vn  24.302052 -2.801401 30.343512
vn  -24.302052 -2.801408 30.343512
vn  -24.302332 -2.801650 30.343266
vn  -37.373650 -1.017090 11.015542
vn  -37.373627 -1.017002 11.015623
vn  37.373627 -1.016990 11.015623
vn  37.373627 -1.016990 11.015623
vn  -38.976482 -0.000006 -0.000000
vn  -38.976482 -0.000006 -0.000000
vn  38.976482 0.000006 0.000000
vn  38.976482 0.000006 0.000000
vn  -37.373604 1.017088 -11.015690
vn  -37.373604 1.017093 -11.015686
vn  37.373604 1.017103 -11.015686
vn  37.373604 1.017103 -11.015686
vn  -24.302343 2.801643 -30.343256
vn  -24.302328 2.801631 -30.343269
vn  -0.000006 38.811405 3.583479
vn  -0.000006 38.811405 3.583479
vn  -0.000006 38.811405 3.583479
vn  -0.000006 38.811432 3.583195
vn  -0.000006 38.811432 3.583195
vn  -0.000006 38.811409 3.583418
vn  -0.000006 38.811409 3.583418
vn  -0.000006 38.811432 3.583195
vn  -0.000006 38.811432 3.583195
vn  -0.000006 38.811405 3.583479
vn  -24.302052 -2.801408 30.343512
vn  -24.302052 -2.801408 30.343512
vn  -24.302052 -2.801408 30.343512
vn  -24.302332 -2.801650 30.343266
vn  24.302332 -2.801644 30.343266
vn  24.302332 -2.801644 30.343266
vn  37.373554 -1.017012 11.015866
vn  37.373554 -1.017012 11.015866
vn  -37.373650 -1.017090 11.015542
vn  -37.373627 -1.017002 11.015623
vn  38.976482 0.000006 0.000000
vn  38.976482 0.000006 0.000000
vn  -38.976482 -0.000006 -0.000000
vn  -38.976482 -0.000006 -0.000000
vn  37.373531 1.017126 -11.015930
vn  37.373531 1.017126 -11.015930
vn  -37.373604 1.017088 -11.015690
vn  -37.373604 1.017093 -11.015686
vn  24.302328 2.801639 -30.343269
vn  24.302328 2.801639 -30.343269
vn  15.983557 -3.268241 35.397892
vn  15.983557 -3.268241 35.397892
vn  15.983557 -3.268241 35.397892
vn  15.983623 -3.268181 35.397869
vn  0.000039 38.811413 3.583409
vn  -0.000073 38.811417 3.583351
vn  0.000077 -38.811413 -3.583384
vn  0.000077 -38.811413 -3.583384
vn  -0.000076 38.811420 3.583326
vn  -0.000013 38.811417 3.583353
vn  0.000051 -38.811417 -3.583365
vn  0.000051 -38.811417 -3.583365
vn  -0.000033 38.811417 3.583364
vn  -0.000033 38.811417 3.583364
vn  -6.908946 3.526600 -38.196804
vn  -6.908865 3.526661 -38.196812
vn  -15.983532 -3.268189 35.397911
vn  -15.983532 -3.268189 35.397911
vn  -15.983532 -3.268189 35.397911
vn  -15.983465 -3.268250 35.397934
vn  0.000061 38.811417 3.583351
vn  0.000061 38.811417 3.583351
vn  0.000020 -38.811420 -3.583324
vn  -0.000065 -38.811413 -3.583385
vn  0.000001 38.811417 3.583353
vn  0.000001 38.811417 3.583353
vn  -0.000066 -38.811417 -3.583379
vn  -0.000039 -38.811417 -3.583365
vn  -0.000041 38.811409 3.583449
vn  0.000021 38.811417 3.583364
vn  6.908819 3.526664 -38.196819
vn  6.908819 3.526664 -38.196819
# 92 vertex normals

g DASH_02
usemtl DASH_02
s 0
f 3//3 2//2 1//1
f 4//4 3//3 1//1
f 5//5 4//4 1//1
f 6//6 4//4 5//5
f 7//7 6//6 5//5
f 8//8 6//6 7//7
f 9//9 8//8 7//7
f 10//10 8//8 9//9
f 13//13 12//12 11//11
f 14//14 13//13 11//11
f 13//13 14//14 15//15
f 16//16 13//13 15//15
f 16//16 15//15 17//17
f 18//18 16//16 17//17
f 12//12 20//20 19//19
f 11//11 12//12 19//19
f 18//18 17//17 21//21
f 22//22 18//18 21//21
f 20//20 24//24 23//23
f 19//19 20//20 23//23
f 22//22 21//21 25//25
f 26//26 22//22 25//25
f 24//24 28//28 27//27
f 23//23 24//24 27//27
f 26//26 25//25 29//29
f 30//30 26//26 29//29
f 28//28 30//30 29//29
f 27//27 28//28 29//29
f 14//14 11//11 1//1
f 2//2 14//14 1//1
f 14//14 2//2 3//3
f 15//15 14//14 3//3
f 15//15 3//3 4//4
f 17//17 15//15 4//4
f 11//11 19//19 5//5
f 1//1 11//11 5//5
f 17//17 4//4 6//6
f 21//21 17//17 6//6
f 19//19 23//23 7//7
f 5//5 19//19 7//7
f 21//21 6//6 8//8
f 25//25 21//21 8//8
f 23//23 27//27 9//9
f 7//7 23//23 9//9
f 25//25 8//8 10//10
f 29//29 25//25 10//10
f 27//27 29//29 10//10
f 9//9 27//27 10//10
f 33//33 32//32 31//31
f 35//35 34//34 31//31
f 32//32 35//35 31//31
f 37//37 36//36 34//34
f 35//35 37//37 34//34
f 39//39 38//38 36//36
f 37//37 39//39 36//36
f 39//39 40//40 38//38
f 43//43 42//42 41//41
f 44//44 43//43 41//41
f 43//43 46//46 45//45
f 42//42 43//43 45//45
f 46//46 48//48 47//47
f 45//45 46//46 47//47
f 44//44 41//41 49//49
f 50//50 44//44 49//49
f 48//48 52//52 51//51
f 47//47 48//48 51//51
f 50//50 49//49 53//53
f 54//54 50//50 53//53
f 52//52 56//56 55//55
f 51//51 52//52 55//55
f 54//54 53//53 57//57
f 58//58 54//54 57//57
f 56//56 60//60 59//59
f 55//55 56//56 59//59
f 58//58 57//57 59//59
f 60//60 58//58 59//59
f 42//42 33//33 31//31
f 41//41 42//42 31//31
f 42//42 45//45 32//32
f 33//33 42//42 32//32
f 45//45 47//47 35//35
f 32//32 45//45 35//35
f 41//41 31//31 34//34
f 49//49 41//41 34//34
f 47//47 51//51 37//37
f 35//35 47//47 37//37
f 49//49 34//34 36//36
f 53//53 49//49 36//36
f 51//51 55//55 39//39
f 37//37 51//51 39//39
f 53//53 36//36 38//38
f 57//57 53//53 38//38
f 55//55 59//59 40//40
f 39//39 55//55 40//40
f 57//57 38//38 40//40
f 59//59 57//57 40//40
f 63//63 62//62 61//61
f 64//64 63//63 61//61
f 61//61 62//62 65//65
f 66//66 61//61 65//65
f 68//68 67//67 63//63
f 64//64 68//68 63//63
f 66//66 65//65 69//69
f 70//70 66//66 69//69
f 72//72 71//71 67//67
f 68//68 72//72 67//67
f 74//74 73//73 70//70
f 69//69 74//74 70//70
f 73//73 74//74 75//75
f 76//76 73//73 75//75
f 71//71 72//72 76//76
f 75//75 71//71 76//76
f 79//79 78//78 77//77
f 80//80 79//79 77//77
f 77//77 82//82 81//81
f 80//80 77//77 81//81
f 83//83 78//78 79//79
f 84//84 83//83 79//79
f 82//82 86//86 85//85
f 81//81 82//82 85//85
f 87//87 83//83 84//84
f 88//88 87//87 84//84
f 89//89 85//85 86//86
f 90//90 89//89 86//86
f 90//90 92//92 91//91
f 89//89 90//90 91//91
f 88//88 91//91 92//92
f 87//87 88//88 92//92
# 128 faces
